<svg 
height="512pt" 
viewBox="0 -58 512.001 512" 
width="512pt" 
xmlns="http://www.w3.org/2000/svg"
>

<path 
d="m434.246094 246.59375h-356.492188c-26.648437 0-48.253906-21.601562-48.253906-48.253906 0-26.648438 21.605469-48.253906 48.253906-48.253906h356.492188c26.648437 0 48.253906 21.605468 48.253906 48.253906 0 26.652344-21.605469 48.253906-48.253906 48.253906zm0 0" 
fill="#f99daf"
/>

<path 
d="m434.246094 150.085938h-40.335938c26.652344 0 48.253906 21.605468 48.253906 48.253906 0 26.652344-21.601562 48.253906-48.253906 48.253906h40.335938c26.648437 0 48.253906-21.601562 48.253906-48.253906 0-26.648438-21.605469-48.253906-48.253906-48.253906zm0 0" 
fill="#eb7e94"
/>

<path 
d="m477.339844 98.996094c-5.203125 0-9.421875-4.21875-9.421875-9.425782 0-45.324218-36.746094-82.070312-82.070313-82.070312h-259.695312c-45.324219 0-82.070313 36.746094-82.070313 82.070312 0 5.207032-4.21875 9.425782-9.421875 9.425782-15 0-27.160156 12.160156-27.160156 27.160156 0 18.429688 17.949219 31.476562 35.5 25.84375 3.773438-1.210938 8.28125-2.003906 14.203125-2.003906 24.855469 0 24.855469 14 49.707031 14 24.847656 0 24.847656-14 49.699219-14s24.851563 14 49.699219 14 24.847656-14 49.699218-14c24.847657 0 24.847657 14 49.695313 14 24.851563 0 24.851563-14 49.699219-14 24.851562 0 24.851562 14 49.699218 14 24.851563 0 24.851563-14 49.699219-14 5.917969 0 10.425781.792968 14.199219 2.003906 17.546875 5.628906 35.5-7.414062 35.5-25.84375 0-15-12.160156-27.160156-27.160156-27.160156zm0 0" 
fill="#f94b6c"
/>

<path 
d="m477.339844 98.996094c-5.203125 0-9.421875-4.21875-9.421875-9.425782 0-45.324218-36.746094-82.070312-82.070313-82.070312h-51.085937c45.328125 0 82.070312 36.746094 82.070312 82.070312 0 5.207032 4.21875 9.425782 9.421875 9.425782 15 0 27.160156 12.160156 27.160156 27.160156 0 11.90625-7.492187 21.5625-17.527343 25.390625-5.5 2.097656-8.671875 6.195313.570312 2.046875 4.589844-2.058594 10.097657-3.601562 18.34375-3.601562 5.917969 0 10.425781.796874 14.199219 2.003906 17.546875 5.632812 35.5-7.414063 35.5-25.84375 0-14.996094-12.160156-27.15625-27.160156-27.15625zm0 0" 
fill="#e83859"
/>

<path 
d="m477.339844 297.6875c-5.203125 0-9.421875 4.21875-9.421875 9.421875 0 45.328125-36.746094 82.070313-82.070313 82.070313h-259.695312c-45.324219 0-82.070313-36.742188-82.070313-82.070313 0-5.203125-4.21875-9.421875-9.421875-9.421875-15 0-27.160156-12.160156-27.160156-27.160156 0-18.433594 17.949219-31.480469 35.5-25.847656 3.773438 1.210937 8.28125 2.007812 14.203125 2.007812 24.855469 0 24.855469-14 49.707031-14 24.847656 0 24.847656 14 49.699219 14s24.851563-14 49.699219-14 24.847656 14 49.699218 14c24.847657 0 24.847657-14 49.695313-14 24.851563 0 24.851563 14 49.699219 14 24.851562 0 24.851562-14 49.699218-14 24.851563 0 24.851563 14 49.699219 14 5.917969 0 10.425781-.796875 14.199219-2.003906 17.546875-5.632813 35.5 7.414062 35.5 25.84375 0 15-12.160156 27.160156-27.160156 27.160156zm0 0" 
fill="#f94b6c"
/>
<path 
d="m469 244.683594c-3.773438 1.207031-8.28125 2.003906-14.199219 2.003906-24.851562 0-16.828125-3.421875-10.636719-.09375 8.390626 4.503906 14.335938 13.328125 14.335938 23.933594 0 15-12.160156 27.160156-27.160156 27.160156-5.207032 0-9.425782 4.21875-9.425782 9.421875 0 45.328125-36.742187 82.070313-82.070312 82.070313h46c45.328125 0 82.070312-36.742188 82.070312-82.070313 0-5.203125 4.222657-9.421875 9.425782-9.421875 15 0 27.160156-12.160156 27.160156-27.160156 0-18.433594-17.953125-31.476563-35.5-25.84375zm0 0" 
fill="#e83859"
/>

<path 
d="m497.777344 242.539062c-6.632813-4.835937-14.476563-7.105468-22.394532-6.632812 9.125-10.015625 14.617188-23.296875 14.617188-37.566406 0-14.269532-5.492188-27.546875-14.617188-37.566406 7.917969.476562 15.761719-1.796876 22.394532-6.632813 9.039062-6.59375 14.222656-16.792969 14.222656-27.984375 0-19.113281-15.546875-34.660156-34.660156-34.660156-1.058594 0-1.921875-.863282-1.921875-1.921875 0-49.390625-40.183594-89.574219-89.570313-89.574219h-223.847656c-4.140625 0-7.5 3.359375-7.5 7.5 0 4.144531 3.359375 7.5 7.5 7.5h223.847656c41.117188 0 74.570313 33.453125 74.570313 74.574219 0 9.328125 7.589843 16.921875 16.921875 16.921875 18.957031 0 26.910156 24.359375 11.597656 35.527344-5.144531 3.75-11.574219 4.78125-17.648438 2.835937-4.953124-1.589844-10.347656-2.363281-16.488281-2.363281-26.808593 0-27.894531 14-49.699219 14-21.710937 0-22.867187-14-49.695312-14-26.8125 0-27.894531 14-49.703125 14-21.800781 0-22.777344-14-49.695313-14-26.808593 0-27.898437 14-49.699218 14-21.902344 0-22.722656-14-49.699219-14-26.808594 0-27.890625 14-49.699219 14s-22.78125-14-49.703125-14c-6.144531 0-11.539062.773437-16.496093 2.363281-12.71875 4.082031-25.710938-5.34375-25.710938-18.703125 0-10.839844 8.820312-19.660156 19.660156-19.660156 9.332032 0 16.925782-7.59375 16.925782-16.925782 0-41.117187 33.449218-74.570312 74.570312-74.570312h7.84375c4.140625 0 7.5-3.359375 7.5-7.5s-3.359375-7.5-7.5-7.5h-7.847656c-49.386719 0-89.570313 40.179688-89.570313 89.570312 0 1.0625-.863281 1.925782-1.921875 1.925782-19.109375 0-34.660156 15.546875-34.660156 34.660156 0 20.730469 17.625 35.757812 36.617188 34.621094-9.128907 10.015625-14.617188 23.292968-14.617188 37.5625 0 14.269531 5.488281 27.546875 14.617188 37.566406-18.996094-1.140625-36.617188 13.890625-36.617188 34.621094 0 19.109375 15.550781 34.660156 34.660156 34.660156 1.0625 0 1.925782.859375 1.925782 1.921875 0 49.390625 40.179687 89.570313 89.570312 89.570313h199.074219c4.144531 0 7.5-3.359376 7.5-7.5 0-4.140626-3.355469-7.5-7.5-7.5h-199.078125c-41.117188 0-74.570313-33.453126-74.570313-74.570313 0-9.332031-7.589843-16.921875-16.921875-16.921875-10.839844 0-19.660156-8.820312-19.660156-19.660156 0-13.324219 12.957031-22.800782 25.707031-18.707032 4.957031 1.59375 10.351563 2.367188 16.496094 2.367188 26.816406 0 27.898437-14 49.707031-14 21.898438 0 22.722656 14 49.699219 14 26.8125 0 27.890625-14 49.699219-14 21.710937 0 22.867187 14 49.699218 14 26.808594 0 27.890626-14 49.695313-14 21.710937 0 22.871094 14 49.699219 14 26.8125 0 27.894531-14 49.699218-14 21.710938 0 22.867188 14 49.699219 14 6.140625 0 11.535157-.773438 16.488281-2.363281 6.070313-1.953125 12.503907-.914063 17.644532 2.835937 5.125 3.738282 8.0625 9.519532 8.0625 15.867188 0 10.839844-8.816406 19.660156-19.660156 19.660156-9.328126 0-16.921876 7.589844-16.921876 16.921875 0 41.117187-33.449218 74.570313-74.570312 74.570313h-32.613281c-4.144531 0-7.5 3.359374-7.5 7.5 0 4.140624 3.355469 7.5 7.5 7.5h32.613281c49.390625 0 89.570312-40.183594 89.570312-89.570313 0-1.0625.863282-1.921875 1.925782-1.921875 19.109375 0 34.65625-15.550781 34.65625-34.660156.003906-11.195313-5.179688-21.394532-14.21875-27.988282zm-53.667969-83.75c17.996094 4.472657 30.890625 20.847657 30.890625 39.550782s-12.894531 35.082031-30.890625 39.550781c-11.15625-3.085937-16.894531-12.015625-36.683594-12.667969-27.425781-.90625-30.019531 12.789063-49.03125 13.871094h-5.980469c-18.015624-1.027344-20.957031-13.078125-44.351562-13.867188-27.472656-.925781-30.015625 12.78125-49.066406 13.867188h-5.976563c-18.53125-1.054688-21.289062-13.90625-46.710937-13.90625-25.671875 0-28.003906 12.839844-46.710938 13.90625h-5.976562c-18.21875-1.039062-20.808594-13.078125-44.355469-13.867188-23.414063-.785156-29.394531 9.300782-41.371094 12.667969-17.996093-4.472656-30.894531-20.847656-30.894531-39.554687 0-18.703125 12.898438-35.082032 30.894531-39.550782 11.628907 3.242188 17.40625 12.707032 39.015625 12.707032 25.652344 0 28.003906-12.84375 46.710938-13.910156h5.976562c18.089844 1.03125 20.925782 13.085937 44.367188 13.871093 27.648437.925781 29.8125-12.773437 49.054687-13.871093h5.972657c17.992187 1.027343 20.980468 13.078124 44.363281 13.871093 27.550781.925781 29.949219-12.78125 49.0625-13.871093h5.972656c18.449219 1.050781 21.34375 13.910156 46.710937 13.910156 21.765626 0 27.410157-9.5 39.007813-12.707032zm0 0"
/>

</svg>