<svg height="512" viewBox="0 0 58 40" width="512" xmlns="http://www.w3.org/2000/svg"><g id="Page-1" fill="none" fill-rule="evenodd"><g id="019---Macaroon" fill-rule="nonzero"><path id="Shape" d="m2.01 17.18c-.42686737.1403795-.81420263.3803217-1.13.7-.56342275.5616324-.88007021 1.3244649-.88 2.12-.00901125 1.2753427.80149053 2.4124646 2.01 2.82l8.99 2.015 36 .06 8.68-1.985c.5457595-.119972 1.0455756-.3941767 1.44-.79.7711767-.7676786 1.0640592-1.8938942.7645755-2.9400077-.2994838-1.0461134-1.1439807-1.8467175-2.2045755-2.0899923l-10.014-1.983-34.333.057z" fill="#f5efca"/><path id="Shape" d="m3.8 12c-.86836713-.0483069-1.66965056.4662566-1.987 1.276-.11254254.3722222-.26545137.7310215-.456 1.07-.28911978.5301011-.3501619 1.1550063-.16909147 1.7310366s.58867311 1.0536209 1.12909147 1.3229634c1.06327694.6195819 2.36360353.6753208 3.476.149l1.6-.768c1.01944398-.4810041 2.20055602-.4810041 3.22 0l1.78.856c1.019444.4810041 2.200556.4810041 3.22 0l1.78-.856c1.019444-.4810041 2.200556-.4810041 3.22 0l1.78.856c1.019444.4810041 2.200556.4810041 3.22 0l1.78-.856c1.019444-.4810041 2.200556-.4810041 3.22 0l1.586.763c1.1200305.530673 2.4298357.4741643 3.5-.151l.624-.374c1.0630089-.6202462 2.3635112-.6763668 3.476-.15l1.6.768c1.019444.4810041 2.200556.4810041 3.22 0l1.78-.856c1.019444-.4810041 2.200556-.4810041 3.22 0l1.78.856c1.019444.4810041 2.200556.4810041 3.22 0l.648-.311c.6038527-.2118066 1.0910907-.6673239 1.3430076-1.2555738.251917-.5882499.2453839-1.2552238-.0180076-1.8384262-.1564835-.2926912-.2844076-.5997762-.382-.917-.2919603-.8184632-1.0827885-1.351492-1.951-1.315l-25.37-1.5z" fill="#df4d60"/><path id="Shape" d="m3.8 28c-.86836713.0483069-1.66965056-.4662566-1.987-1.276-.11254254-.3722222-.26545137-.7310215-.456-1.07-.28911978-.5301011-.3501619-1.1550063-.16909147-1.7310366s.58867311-1.0536209 1.12909147-1.3229634c1.06327694-.6195819 2.36360353-.6753208 3.476-.149l1.6.768c1.01944398.4810041 2.20055602.4810041 3.22 0l1.78-.856c1.019444-.4810041 2.200556-.4810041 3.22 0l1.78.856c1.019444.4810041 2.200556.4810041 3.22 0l1.78-.856c1.019444-.4810041 2.200556-.4810041 3.22 0l1.78.856c1.019444.4810041 2.200556.4810041 3.22 0l1.586-.763c1.1200305-.530673 2.4298357-.4741643 3.5.151l.624.374c1.0630089.6202462 2.3635112.6763668 3.476.15l1.6-.768c1.019444-.4810041 2.200556-.4810041 3.22 0l1.78.856c1.019444.4810041 2.200556.4810041 3.22 0l1.78-.856c1.019444-.4810041 2.200556-.4810041 3.22 0l.648.311c.6038527.2118066 1.0910907.6673239 1.3430076 1.2555738.251917.5882499.2453839 1.2552238-.0180076 1.8384262-.1564835.2926912-.2844076.5997762-.382.917-.2919603.8184632-1.0827885 1.351492-1.951 1.315l-25.518 3z" fill="#df4d60"/><path id="Shape" d="m55.98 29.53c-.83 3.24-5.12 10.47-26.98 10.47s-26.15-7.23-26.97-10.47c-.14-.54.24-1.04.89-1.31.34722095-.1495352.72197483-.2244859 1.1-.22h49.97c.3735589-.0018325.743861.0695101 1.09.21.65.28 1.03.78.9 1.32z" fill="#ff5364"/><g fill="#fb7b76"><path id="Shape" d="m55.08 28.21c-2.1 3.53-8.23 8.35-26.08 8.35-17.83 0-23.97-4.81-26.08-8.34.34722095-.1495352.72197483-.2244859 1.1-.22h49.97c.3735589-.0018325.743861.0695101 1.09.21z"/><path id="Shape" d="m55.98 10.467c-.83-3.24-5.12-10.467-26.98-10.467s-26.15 7.227-26.97 10.467c-.21.8.75 1.533 1.99 1.533h49.97c1.23 0 2.19-.733 1.99-1.533z"/></g></g></g></svg>